<?xml version="1.0" encoding="utf-8" standalone="no"?>
<!DOCTYPE svg PUBLIC "-//W3C//DTD SVG 1.1//EN"
  "http://www.w3.org/Graphics/SVG/1.1/DTD/svg11.dtd">
<svg xmlns:xlink="http://www.w3.org/1999/xlink" width="711.9pt" height="260.797812pt" viewBox="0 0 711.9 260.797812" xmlns="http://www.w3.org/2000/svg" version="1.1">
 <metadata>
  <rdf:RDF xmlns:dc="http://purl.org/dc/elements/1.1/" xmlns:cc="http://creativecommons.org/ns#" xmlns:rdf="http://www.w3.org/1999/02/22-rdf-syntax-ns#">
   <cc:Work>
    <dc:type rdf:resource="http://purl.org/dc/dcmitype/StillImage"/>
    <dc:date>2026-06-08T17:20:14.703033</dc:date>
    <dc:format>image/svg+xml</dc:format>
    <dc:creator>
     <cc:Agent>
      <dc:title>Matplotlib v3.10.0, https://matplotlib.org/</dc:title>
     </cc:Agent>
    </dc:creator>
   </cc:Work>
  </rdf:RDF>
 </metadata>
 <defs>
  <style type="text/css">*{stroke-linejoin: round; stroke-linecap: butt}</style>
 </defs>
 <g id="figure_1">
  <g id="patch_1">
   <path d="M 0 260.797812 
L 711.9 260.797812 
L 711.9 0 
L 0 0 
z
" style="fill: #ffffff"/>
  </g>
  <g id="axes_1">
   <g id="patch_2">
    <path d="M 41.786777 186.013812 
L 139.782645 186.013812 
Q 146.7 186.013812 146.7 179.677812 
L 146.7 137.437812 
Q 146.7 131.101812 139.782645 131.101812 
L 41.786777 131.101812 
Q 34.869421 131.101812 34.869421 137.437812 
L 34.869421 179.677812 
Q 34.869421 186.013812 41.786777 186.013812 
z
" clip-path="url(#p44a644ae5e)" style="fill: #e3f2fd; stroke: #1565c0; stroke-width: 2; stroke-linejoin: miter"/>
   </g>
   <g id="patch_3">
    <path d="M 177.251653 186.013812 
L 275.247521 186.013812 
Q 282.164876 186.013812 282.164876 179.677812 
L 282.164876 137.437812 
Q 282.164876 131.101812 275.247521 131.101812 
L 177.251653 131.101812 
Q 170.334298 131.101812 170.334298 137.437812 
L 170.334298 179.677812 
Q 170.334298 186.013812 177.251653 186.013812 
z
" clip-path="url(#p44a644ae5e)" style="fill: #e8f5e9; stroke: #2e7d32; stroke-width: 2; stroke-linejoin: miter"/>
   </g>
   <g id="patch_4">
    <path d="M 312.716529 186.013812 
L 410.712397 186.013812 
Q 417.629752 186.013812 417.629752 179.677812 
L 417.629752 137.437812 
Q 417.629752 131.101812 410.712397 131.101812 
L 312.716529 131.101812 
Q 305.799174 131.101812 305.799174 137.437812 
L 305.799174 179.677812 
Q 305.799174 186.013812 312.716529 186.013812 
z
" clip-path="url(#p44a644ae5e)" style="fill: #fff3e0; stroke: #e65100; stroke-width: 2; stroke-linejoin: miter"/>
   </g>
   <g id="patch_5">
    <path d="M 448.181405 186.013812 
L 546.177273 186.013812 
Q 553.094628 186.013812 553.094628 179.677812 
L 553.094628 137.437812 
Q 553.094628 131.101812 546.177273 131.101812 
L 448.181405 131.101812 
Q 441.26405 131.101812 441.26405 137.437812 
L 441.26405 179.677812 
Q 441.26405 186.013812 448.181405 186.013812 
z
" clip-path="url(#p44a644ae5e)" style="fill: #e8f5e9; stroke: #2e7d32; stroke-width: 2; stroke-linejoin: miter"/>
   </g>
   <g id="patch_6">
    <path d="M 583.646281 186.013812 
L 681.642149 186.013812 
Q 688.559504 186.013812 688.559504 179.677812 
L 688.559504 137.437812 
Q 688.559504 131.101812 681.642149 131.101812 
L 583.646281 131.101812 
Q 576.728926 131.101812 576.728926 137.437812 
L 576.728926 179.677812 
Q 576.728926 186.013812 583.646281 186.013812 
z
" clip-path="url(#p44a644ae5e)" style="fill: #e3f2fd; stroke: #1565c0; stroke-width: 2; stroke-linejoin: miter"/>
   </g>
   <g id="patch_7">
    <path d="M 147.545178 158.557812 
Q 158.51519 158.557812 167.249135 158.557812 
" clip-path="url(#p44a644ae5e)" style="fill: none; stroke: #37474f; stroke-width: 2; stroke-linecap: round"/>
    <path d="M 160.049135 154.957812 
L 167.249135 158.557812 
L 160.049135 162.157812 
z
" clip-path="url(#p44a644ae5e)" style="fill: #37474f; stroke: #37474f; stroke-width: 2; stroke-linecap: round"/>
   </g>
   <g id="patch_8">
    <path d="M 283.010054 158.557812 
Q 293.980066 158.557812 302.714011 158.557812 
" clip-path="url(#p44a644ae5e)" style="fill: none; stroke: #37474f; stroke-width: 2; stroke-linecap: round"/>
    <path d="M 295.514011 154.957812 
L 302.714011 158.557812 
L 295.514011 162.157812 
z
" clip-path="url(#p44a644ae5e)" style="fill: #37474f; stroke: #37474f; stroke-width: 2; stroke-linecap: round"/>
   </g>
   <g id="patch_9">
    <path d="M 418.47493 158.557812 
Q 429.444942 158.557812 438.178887 158.557812 
" clip-path="url(#p44a644ae5e)" style="fill: none; stroke: #37474f; stroke-width: 2; stroke-linecap: round"/>
    <path d="M 430.978887 154.957812 
L 438.178887 158.557812 
L 430.978887 162.157812 
z
" clip-path="url(#p44a644ae5e)" style="fill: #37474f; stroke: #37474f; stroke-width: 2; stroke-linecap: round"/>
   </g>
   <g id="patch_10">
    <path d="M 553.939806 158.557812 
Q 564.909818 158.557812 573.643763 158.557812 
" clip-path="url(#p44a644ae5e)" style="fill: none; stroke: #37474f; stroke-width: 2; stroke-linecap: round"/>
    <path d="M 566.443763 154.957812 
L 573.643763 158.557812 
L 566.443763 162.157812 
z
" clip-path="url(#p44a644ae5e)" style="fill: #37474f; stroke: #37474f; stroke-width: 2; stroke-linecap: round"/>
   </g>
   <g id="patch_11">
    <path d="M 361.714463 70.797148 
Q 361.714463 100.475651 361.714463 127.918085 
" clip-path="url(#p44a644ae5e)" style="fill: none; stroke-dasharray: 7.4,3.2; stroke-dashoffset: 0; stroke: #b71c1c; stroke-width: 2; stroke-linecap: round"/>
    <path d="M 364.914463 121.518085 
L 361.714463 127.918085 
L 358.514463 121.518085 
z
" clip-path="url(#p44a644ae5e)" style="fill: #b71c1c; stroke-dasharray: 7.4,3.2; stroke-dashoffset: 0; stroke: #b71c1c; stroke-width: 2; stroke-linecap: round"/>
   </g>
   <g id="line2d_1">
    <path d="M 36.022314 125.293812 
L 36.022314 118.957812 
L 281.011983 118.957812 
L 281.011983 125.293812 
" clip-path="url(#p44a644ae5e)" style="fill: none; stroke: #455a64; stroke-width: 1.4; stroke-linecap: square"/>
   </g>
   <g id="line2d_2">
    <path d="M 442.416942 125.293812 
L 442.416942 118.957812 
L 687.406612 118.957812 
L 687.406612 125.293812 
" clip-path="url(#p44a644ae5e)" style="fill: none; stroke: #455a64; stroke-width: 1.4; stroke-linecap: square"/>
   </g>
   <g id="text_1">
    <!-- Source -->
    <g style="fill: #1565c0" transform="translate(67.485023 155.150375) scale(0.12 -0.12)">
     <defs>
      <path id="DejaVuSans-Bold-53" d="M 3834 4519 
L 3834 3531 
Q 3450 3703 3084 3790 
Q 2719 3878 2394 3878 
Q 1963 3878 1756 3759 
Q 1550 3641 1550 3391 
Q 1550 3203 1689 3098 
Q 1828 2994 2194 2919 
L 2706 2816 
Q 3484 2659 3812 2340 
Q 4141 2022 4141 1434 
Q 4141 663 3683 286 
Q 3225 -91 2284 -91 
Q 1841 -91 1394 -6 
Q 947 78 500 244 
L 500 1259 
Q 947 1022 1364 901 
Q 1781 781 2169 781 
Q 2563 781 2772 912 
Q 2981 1044 2981 1288 
Q 2981 1506 2839 1625 
Q 2697 1744 2272 1838 
L 1806 1941 
Q 1106 2091 782 2419 
Q 459 2747 459 3303 
Q 459 4000 909 4375 
Q 1359 4750 2203 4750 
Q 2588 4750 2994 4692 
Q 3400 4634 3834 4519 
z
" transform="scale(0.015625)"/>
      <path id="DejaVuSans-Bold-6f" d="M 2203 2784 
Q 1831 2784 1636 2517 
Q 1441 2250 1441 1747 
Q 1441 1244 1636 976 
Q 1831 709 2203 709 
Q 2569 709 2762 976 
Q 2956 1244 2956 1747 
Q 2956 2250 2762 2517 
Q 2569 2784 2203 2784 
z
M 2203 3584 
Q 3106 3584 3614 3096 
Q 4122 2609 4122 1747 
Q 4122 884 3614 396 
Q 3106 -91 2203 -91 
Q 1297 -91 786 396 
Q 275 884 275 1747 
Q 275 2609 786 3096 
Q 1297 3584 2203 3584 
z
" transform="scale(0.015625)"/>
      <path id="DejaVuSans-Bold-75" d="M 500 1363 
L 500 3500 
L 1625 3500 
L 1625 3150 
Q 1625 2866 1622 2436 
Q 1619 2006 1619 1863 
Q 1619 1441 1641 1255 
Q 1663 1069 1716 984 
Q 1784 875 1895 815 
Q 2006 756 2150 756 
Q 2500 756 2700 1025 
Q 2900 1294 2900 1772 
L 2900 3500 
L 4019 3500 
L 4019 0 
L 2900 0 
L 2900 506 
Q 2647 200 2364 54 
Q 2081 -91 1741 -91 
Q 1134 -91 817 281 
Q 500 653 500 1363 
z
" transform="scale(0.015625)"/>
      <path id="DejaVuSans-Bold-72" d="M 3138 2547 
Q 2991 2616 2845 2648 
Q 2700 2681 2553 2681 
Q 2122 2681 1889 2404 
Q 1656 2128 1656 1613 
L 1656 0 
L 538 0 
L 538 3500 
L 1656 3500 
L 1656 2925 
Q 1872 3269 2151 3426 
Q 2431 3584 2822 3584 
Q 2878 3584 2943 3579 
Q 3009 3575 3134 3559 
L 3138 2547 
z
" transform="scale(0.015625)"/>
      <path id="DejaVuSans-Bold-63" d="M 3366 3391 
L 3366 2478 
Q 3138 2634 2908 2709 
Q 2678 2784 2431 2784 
Q 1963 2784 1702 2511 
Q 1441 2238 1441 1747 
Q 1441 1256 1702 982 
Q 1963 709 2431 709 
Q 2694 709 2930 787 
Q 3166 866 3366 1019 
L 3366 103 
Q 3103 6 2833 -42 
Q 2563 -91 2291 -91 
Q 1344 -91 809 395 
Q 275 881 275 1747 
Q 275 2613 809 3098 
Q 1344 3584 2291 3584 
Q 2566 3584 2833 3536 
Q 3100 3488 3366 3391 
z
" transform="scale(0.015625)"/>
      <path id="DejaVuSans-Bold-65" d="M 4031 1759 
L 4031 1441 
L 1416 1441 
Q 1456 1047 1700 850 
Q 1944 653 2381 653 
Q 2734 653 3104 758 
Q 3475 863 3866 1075 
L 3866 213 
Q 3469 63 3072 -14 
Q 2675 -91 2278 -91 
Q 1328 -91 801 392 
Q 275 875 275 1747 
Q 275 2603 792 3093 
Q 1309 3584 2216 3584 
Q 3041 3584 3536 3087 
Q 4031 2591 4031 1759 
z
M 2881 2131 
Q 2881 2450 2695 2645 
Q 2509 2841 2209 2841 
Q 1884 2841 1681 2658 
Q 1478 2475 1428 2131 
L 2881 2131 
z
" transform="scale(0.015625)"/>
     </defs>
     <use xlink:href="#DejaVuSans-Bold-53"/>
     <use xlink:href="#DejaVuSans-Bold-6f" transform="translate(72.021484 0)"/>
     <use xlink:href="#DejaVuSans-Bold-75" transform="translate(140.722656 0)"/>
     <use xlink:href="#DejaVuSans-Bold-72" transform="translate(211.914062 0)"/>
     <use xlink:href="#DejaVuSans-Bold-63" transform="translate(261.230469 0)"/>
     <use xlink:href="#DejaVuSans-Bold-65" transform="translate(320.507812 0)"/>
    </g>
    <!-- (Bits) -->
    <g style="fill: #1565c0" transform="translate(72.231586 168.58775) scale(0.12 -0.12)">
     <defs>
      <path id="DejaVuSans-Bold-28" d="M 2413 -844 
L 1484 -844 
Q 1006 -72 778 623 
Q 550 1319 550 2003 
Q 550 2688 779 3389 
Q 1009 4091 1484 4856 
L 2413 4856 
Q 2013 4116 1813 3408 
Q 1613 2700 1613 2009 
Q 1613 1319 1811 609 
Q 2009 -100 2413 -844 
z
" transform="scale(0.015625)"/>
      <path id="DejaVuSans-Bold-42" d="M 2456 2859 
Q 2741 2859 2887 2984 
Q 3034 3109 3034 3353 
Q 3034 3594 2887 3720 
Q 2741 3847 2456 3847 
L 1791 3847 
L 1791 2859 
L 2456 2859 
z
M 2497 819 
Q 2859 819 3042 972 
Q 3225 1125 3225 1434 
Q 3225 1738 3044 1889 
Q 2863 2041 2497 2041 
L 1791 2041 
L 1791 819 
L 2497 819 
z
M 3616 2497 
Q 4003 2384 4215 2081 
Q 4428 1778 4428 1338 
Q 4428 663 3972 331 
Q 3516 0 2584 0 
L 588 0 
L 588 4666 
L 2394 4666 
Q 3366 4666 3802 4372 
Q 4238 4078 4238 3431 
Q 4238 3091 4078 2852 
Q 3919 2613 3616 2497 
z
" transform="scale(0.015625)"/>
      <path id="DejaVuSans-Bold-69" d="M 538 3500 
L 1656 3500 
L 1656 0 
L 538 0 
L 538 3500 
z
M 538 4863 
L 1656 4863 
L 1656 3950 
L 538 3950 
L 538 4863 
z
" transform="scale(0.015625)"/>
      <path id="DejaVuSans-Bold-74" d="M 1759 4494 
L 1759 3500 
L 2913 3500 
L 2913 2700 
L 1759 2700 
L 1759 1216 
Q 1759 972 1856 886 
Q 1953 800 2241 800 
L 2816 800 
L 2816 0 
L 1856 0 
Q 1194 0 917 276 
Q 641 553 641 1216 
L 641 2700 
L 84 2700 
L 84 3500 
L 641 3500 
L 641 4494 
L 1759 4494 
z
" transform="scale(0.015625)"/>
      <path id="DejaVuSans-Bold-73" d="M 3272 3391 
L 3272 2541 
Q 2913 2691 2578 2766 
Q 2244 2841 1947 2841 
Q 1628 2841 1473 2761 
Q 1319 2681 1319 2516 
Q 1319 2381 1436 2309 
Q 1553 2238 1856 2203 
L 2053 2175 
Q 2913 2066 3209 1816 
Q 3506 1566 3506 1031 
Q 3506 472 3093 190 
Q 2681 -91 1863 -91 
Q 1516 -91 1145 -36 
Q 775 19 384 128 
L 384 978 
Q 719 816 1070 734 
Q 1422 653 1784 653 
Q 2113 653 2278 743 
Q 2444 834 2444 1013 
Q 2444 1163 2330 1236 
Q 2216 1309 1875 1350 
L 1678 1375 
Q 931 1469 631 1722 
Q 331 1975 331 2491 
Q 331 3047 712 3315 
Q 1094 3584 1881 3584 
Q 2191 3584 2531 3537 
Q 2872 3491 3272 3391 
z
" transform="scale(0.015625)"/>
      <path id="DejaVuSans-Bold-29" d="M 513 -844 
Q 913 -100 1113 609 
Q 1313 1319 1313 2009 
Q 1313 2700 1113 3408 
Q 913 4116 513 4856 
L 1441 4856 
Q 1916 4091 2145 3389 
Q 2375 2688 2375 2003 
Q 2375 1319 2147 623 
Q 1919 -72 1441 -844 
L 513 -844 
z
" transform="scale(0.015625)"/>
     </defs>
     <use xlink:href="#DejaVuSans-Bold-28"/>
     <use xlink:href="#DejaVuSans-Bold-42" transform="translate(45.703125 0)"/>
     <use xlink:href="#DejaVuSans-Bold-69" transform="translate(121.923828 0)"/>
     <use xlink:href="#DejaVuSans-Bold-74" transform="translate(156.201172 0)"/>
     <use xlink:href="#DejaVuSans-Bold-73" transform="translate(204.003906 0)"/>
     <use xlink:href="#DejaVuSans-Bold-29" transform="translate(263.525391 0)"/>
    </g>
   </g>
   <g id="text_2">
    <!-- Modulator -->
    <g style="fill: #2e7d32" transform="translate(191.535837 155.150375) scale(0.12 -0.12)">
     <defs>
      <path id="DejaVuSans-Bold-4d" d="M 588 4666 
L 2119 4666 
L 3181 2169 
L 4250 4666 
L 5778 4666 
L 5778 0 
L 4641 0 
L 4641 3413 
L 3566 897 
L 2803 897 
L 1728 3413 
L 1728 0 
L 588 0 
L 588 4666 
z
" transform="scale(0.015625)"/>
      <path id="DejaVuSans-Bold-64" d="M 2919 2988 
L 2919 4863 
L 4044 4863 
L 4044 0 
L 2919 0 
L 2919 506 
Q 2688 197 2409 53 
Q 2131 -91 1766 -91 
Q 1119 -91 703 423 
Q 288 938 288 1747 
Q 288 2556 703 3070 
Q 1119 3584 1766 3584 
Q 2128 3584 2408 3439 
Q 2688 3294 2919 2988 
z
M 2181 722 
Q 2541 722 2730 984 
Q 2919 1247 2919 1747 
Q 2919 2247 2730 2509 
Q 2541 2772 2181 2772 
Q 1825 2772 1636 2509 
Q 1447 2247 1447 1747 
Q 1447 1247 1636 984 
Q 1825 722 2181 722 
z
" transform="scale(0.015625)"/>
      <path id="DejaVuSans-Bold-6c" d="M 538 4863 
L 1656 4863 
L 1656 0 
L 538 0 
L 538 4863 
z
" transform="scale(0.015625)"/>
      <path id="DejaVuSans-Bold-61" d="M 2106 1575 
Q 1756 1575 1579 1456 
Q 1403 1338 1403 1106 
Q 1403 894 1545 773 
Q 1688 653 1941 653 
Q 2256 653 2472 879 
Q 2688 1106 2688 1447 
L 2688 1575 
L 2106 1575 
z
M 3816 1997 
L 3816 0 
L 2688 0 
L 2688 519 
Q 2463 200 2181 54 
Q 1900 -91 1497 -91 
Q 953 -91 614 226 
Q 275 544 275 1050 
Q 275 1666 698 1953 
Q 1122 2241 2028 2241 
L 2688 2241 
L 2688 2328 
Q 2688 2594 2478 2717 
Q 2269 2841 1825 2841 
Q 1466 2841 1156 2769 
Q 847 2697 581 2553 
L 581 3406 
Q 941 3494 1303 3539 
Q 1666 3584 2028 3584 
Q 2975 3584 3395 3211 
Q 3816 2838 3816 1997 
z
" transform="scale(0.015625)"/>
     </defs>
     <use xlink:href="#DejaVuSans-Bold-4d"/>
     <use xlink:href="#DejaVuSans-Bold-6f" transform="translate(99.511719 0)"/>
     <use xlink:href="#DejaVuSans-Bold-64" transform="translate(168.212891 0)"/>
     <use xlink:href="#DejaVuSans-Bold-75" transform="translate(239.794922 0)"/>
     <use xlink:href="#DejaVuSans-Bold-6c" transform="translate(310.986328 0)"/>
     <use xlink:href="#DejaVuSans-Bold-61" transform="translate(345.263672 0)"/>
     <use xlink:href="#DejaVuSans-Bold-74" transform="translate(412.744141 0)"/>
     <use xlink:href="#DejaVuSans-Bold-6f" transform="translate(460.546875 0)"/>
     <use xlink:href="#DejaVuSans-Bold-72" transform="translate(529.248047 0)"/>
    </g>
    <!-- (BPSK) -->
    <g style="fill: #2e7d32" transform="translate(202.824274 168.58775) scale(0.12 -0.12)">
     <defs>
      <path id="DejaVuSans-Bold-50" d="M 588 4666 
L 2584 4666 
Q 3475 4666 3951 4270 
Q 4428 3875 4428 3144 
Q 4428 2409 3951 2014 
Q 3475 1619 2584 1619 
L 1791 1619 
L 1791 0 
L 588 0 
L 588 4666 
z
M 1791 3794 
L 1791 2491 
L 2456 2491 
Q 2806 2491 2997 2661 
Q 3188 2831 3188 3144 
Q 3188 3456 2997 3625 
Q 2806 3794 2456 3794 
L 1791 3794 
z
" transform="scale(0.015625)"/>
      <path id="DejaVuSans-Bold-4b" d="M 588 4666 
L 1791 4666 
L 1791 2963 
L 3525 4666 
L 4922 4666 
L 2675 2456 
L 5153 0 
L 3647 0 
L 1791 1838 
L 1791 0 
L 588 0 
L 588 4666 
z
" transform="scale(0.015625)"/>
     </defs>
     <use xlink:href="#DejaVuSans-Bold-28"/>
     <use xlink:href="#DejaVuSans-Bold-42" transform="translate(45.703125 0)"/>
     <use xlink:href="#DejaVuSans-Bold-50" transform="translate(121.923828 0)"/>
     <use xlink:href="#DejaVuSans-Bold-53" transform="translate(195.214844 0)"/>
     <use xlink:href="#DejaVuSans-Bold-4b" transform="translate(267.236328 0)"/>
     <use xlink:href="#DejaVuSans-Bold-29" transform="translate(344.726562 0)"/>
    </g>
   </g>
   <g id="text_3">
    <!-- Channel -->
    <g style="fill: #e65100" transform="translate(334.32165 161.869062) scale(0.12 -0.12)">
     <defs>
      <path id="DejaVuSans-Bold-43" d="M 4288 256 
Q 3956 84 3597 -3 
Q 3238 -91 2847 -91 
Q 1681 -91 1000 561 
Q 319 1213 319 2328 
Q 319 3447 1000 4098 
Q 1681 4750 2847 4750 
Q 3238 4750 3597 4662 
Q 3956 4575 4288 4403 
L 4288 3438 
Q 3953 3666 3628 3772 
Q 3303 3878 2944 3878 
Q 2300 3878 1931 3465 
Q 1563 3053 1563 2328 
Q 1563 1606 1931 1193 
Q 2300 781 2944 781 
Q 3303 781 3628 887 
Q 3953 994 4288 1222 
L 4288 256 
z
" transform="scale(0.015625)"/>
      <path id="DejaVuSans-Bold-68" d="M 4056 2131 
L 4056 0 
L 2931 0 
L 2931 347 
L 2931 1625 
Q 2931 2084 2911 2256 
Q 2891 2428 2841 2509 
Q 2775 2619 2662 2680 
Q 2550 2741 2406 2741 
Q 2056 2741 1856 2470 
Q 1656 2200 1656 1722 
L 1656 0 
L 538 0 
L 538 4863 
L 1656 4863 
L 1656 2988 
Q 1909 3294 2193 3439 
Q 2478 3584 2822 3584 
Q 3428 3584 3742 3212 
Q 4056 2841 4056 2131 
z
" transform="scale(0.015625)"/>
      <path id="DejaVuSans-Bold-6e" d="M 4056 2131 
L 4056 0 
L 2931 0 
L 2931 347 
L 2931 1631 
Q 2931 2084 2911 2256 
Q 2891 2428 2841 2509 
Q 2775 2619 2662 2680 
Q 2550 2741 2406 2741 
Q 2056 2741 1856 2470 
Q 1656 2200 1656 1722 
L 1656 0 
L 538 0 
L 538 3500 
L 1656 3500 
L 1656 2988 
Q 1909 3294 2193 3439 
Q 2478 3584 2822 3584 
Q 3428 3584 3742 3212 
Q 4056 2841 4056 2131 
z
" transform="scale(0.015625)"/>
     </defs>
     <use xlink:href="#DejaVuSans-Bold-43"/>
     <use xlink:href="#DejaVuSans-Bold-68" transform="translate(73.388672 0)"/>
     <use xlink:href="#DejaVuSans-Bold-61" transform="translate(144.580078 0)"/>
     <use xlink:href="#DejaVuSans-Bold-6e" transform="translate(212.060547 0)"/>
     <use xlink:href="#DejaVuSans-Bold-6e" transform="translate(283.251953 0)"/>
     <use xlink:href="#DejaVuSans-Bold-65" transform="translate(354.443359 0)"/>
     <use xlink:href="#DejaVuSans-Bold-6c" transform="translate(422.265625 0)"/>
    </g>
   </g>
   <g id="text_4">
    <!-- Demodulator -->
    <g style="fill: #2e7d32" transform="translate(453.133714 161.869062) scale(0.12 -0.12)">
     <defs>
      <path id="DejaVuSans-Bold-44" d="M 1791 3756 
L 1791 909 
L 2222 909 
Q 2959 909 3348 1275 
Q 3738 1641 3738 2338 
Q 3738 3031 3350 3393 
Q 2963 3756 2222 3756 
L 1791 3756 
z
M 588 4666 
L 1856 4666 
Q 2919 4666 3439 4514 
Q 3959 4363 4331 4000 
Q 4659 3684 4818 3271 
Q 4978 2859 4978 2338 
Q 4978 1809 4818 1395 
Q 4659 981 4331 666 
Q 3956 303 3431 151 
Q 2906 0 1856 0 
L 588 0 
L 588 4666 
z
" transform="scale(0.015625)"/>
      <path id="DejaVuSans-Bold-6d" d="M 3781 2919 
Q 3994 3244 4286 3414 
Q 4578 3584 4928 3584 
Q 5531 3584 5847 3212 
Q 6163 2841 6163 2131 
L 6163 0 
L 5038 0 
L 5038 1825 
Q 5041 1866 5042 1909 
Q 5044 1953 5044 2034 
Q 5044 2406 4934 2573 
Q 4825 2741 4581 2741 
Q 4263 2741 4089 2478 
Q 3916 2216 3909 1719 
L 3909 0 
L 2784 0 
L 2784 1825 
Q 2784 2406 2684 2573 
Q 2584 2741 2328 2741 
Q 2006 2741 1831 2477 
Q 1656 2213 1656 1722 
L 1656 0 
L 531 0 
L 531 3500 
L 1656 3500 
L 1656 2988 
Q 1863 3284 2130 3434 
Q 2397 3584 2719 3584 
Q 3081 3584 3359 3409 
Q 3638 3234 3781 2919 
z
" transform="scale(0.015625)"/>
     </defs>
     <use xlink:href="#DejaVuSans-Bold-44"/>
     <use xlink:href="#DejaVuSans-Bold-65" transform="translate(83.007812 0)"/>
     <use xlink:href="#DejaVuSans-Bold-6d" transform="translate(150.830078 0)"/>
     <use xlink:href="#DejaVuSans-Bold-6f" transform="translate(255.029297 0)"/>
     <use xlink:href="#DejaVuSans-Bold-64" transform="translate(323.730469 0)"/>
     <use xlink:href="#DejaVuSans-Bold-75" transform="translate(395.3125 0)"/>
     <use xlink:href="#DejaVuSans-Bold-6c" transform="translate(466.503906 0)"/>
     <use xlink:href="#DejaVuSans-Bold-61" transform="translate(500.78125 0)"/>
     <use xlink:href="#DejaVuSans-Bold-74" transform="translate(568.261719 0)"/>
     <use xlink:href="#DejaVuSans-Bold-6f" transform="translate(616.064453 0)"/>
     <use xlink:href="#DejaVuSans-Bold-72" transform="translate(684.765625 0)"/>
    </g>
   </g>
   <g id="text_5">
    <!-- Receiver -->
    <g style="fill: #1565c0" transform="translate(603.331402 155.150375) scale(0.12 -0.12)">
     <defs>
      <path id="DejaVuSans-Bold-52" d="M 2297 2597 
Q 2675 2597 2839 2737 
Q 3003 2878 3003 3200 
Q 3003 3519 2839 3656 
Q 2675 3794 2297 3794 
L 1791 3794 
L 1791 2597 
L 2297 2597 
z
M 1791 1766 
L 1791 0 
L 588 0 
L 588 4666 
L 2425 4666 
Q 3347 4666 3776 4356 
Q 4206 4047 4206 3378 
Q 4206 2916 3982 2619 
Q 3759 2322 3309 2181 
Q 3556 2125 3751 1926 
Q 3947 1728 4147 1325 
L 4800 0 
L 3519 0 
L 2950 1159 
Q 2778 1509 2601 1637 
Q 2425 1766 2131 1766 
L 1791 1766 
z
" transform="scale(0.015625)"/>
      <path id="DejaVuSans-Bold-76" d="M 97 3500 
L 1216 3500 
L 2088 1081 
L 2956 3500 
L 4078 3500 
L 2700 0 
L 1472 0 
L 97 3500 
z
" transform="scale(0.015625)"/>
     </defs>
     <use xlink:href="#DejaVuSans-Bold-52"/>
     <use xlink:href="#DejaVuSans-Bold-65" transform="translate(77.001953 0)"/>
     <use xlink:href="#DejaVuSans-Bold-63" transform="translate(144.824219 0)"/>
     <use xlink:href="#DejaVuSans-Bold-65" transform="translate(204.101562 0)"/>
     <use xlink:href="#DejaVuSans-Bold-69" transform="translate(271.923828 0)"/>
     <use xlink:href="#DejaVuSans-Bold-76" transform="translate(306.201172 0)"/>
     <use xlink:href="#DejaVuSans-Bold-65" transform="translate(371.386719 0)"/>
     <use xlink:href="#DejaVuSans-Bold-72" transform="translate(439.208984 0)"/>
    </g>
    <!-- (Bits) -->
    <g style="fill: #1565c0" transform="translate(614.09109 168.58775) scale(0.12 -0.12)">
     <use xlink:href="#DejaVuSans-Bold-28"/>
     <use xlink:href="#DejaVuSans-Bold-42" transform="translate(45.703125 0)"/>
     <use xlink:href="#DejaVuSans-Bold-69" transform="translate(121.923828 0)"/>
     <use xlink:href="#DejaVuSans-Bold-74" transform="translate(156.201172 0)"/>
     <use xlink:href="#DejaVuSans-Bold-73" transform="translate(204.003906 0)"/>
     <use xlink:href="#DejaVuSans-Bold-29" transform="translate(263.525391 0)"/>
    </g>
   </g>
   <g id="text_6">
    <!-- bits -->
    <g style="fill: #555555" transform="translate(150.301836 199.741812) scale(0.09 -0.09)">
     <defs>
      <path id="DejaVuSans-62" d="M 3116 1747 
Q 3116 2381 2855 2742 
Q 2594 3103 2138 3103 
Q 1681 3103 1420 2742 
Q 1159 2381 1159 1747 
Q 1159 1113 1420 752 
Q 1681 391 2138 391 
Q 2594 391 2855 752 
Q 3116 1113 3116 1747 
z
M 1159 2969 
Q 1341 3281 1617 3432 
Q 1894 3584 2278 3584 
Q 2916 3584 3314 3078 
Q 3713 2572 3713 1747 
Q 3713 922 3314 415 
Q 2916 -91 2278 -91 
Q 1894 -91 1617 61 
Q 1341 213 1159 525 
L 1159 0 
L 581 0 
L 581 4863 
L 1159 4863 
L 1159 2969 
z
" transform="scale(0.015625)"/>
      <path id="DejaVuSans-69" d="M 603 3500 
L 1178 3500 
L 1178 0 
L 603 0 
L 603 3500 
z
M 603 4863 
L 1178 4863 
L 1178 4134 
L 603 4134 
L 603 4863 
z
" transform="scale(0.015625)"/>
      <path id="DejaVuSans-74" d="M 1172 4494 
L 1172 3500 
L 2356 3500 
L 2356 3053 
L 1172 3053 
L 1172 1153 
Q 1172 725 1289 603 
Q 1406 481 1766 481 
L 2356 481 
L 2356 0 
L 1766 0 
Q 1100 0 847 248 
Q 594 497 594 1153 
L 594 3053 
L 172 3053 
L 172 3500 
L 594 3500 
L 594 4494 
L 1172 4494 
z
" transform="scale(0.015625)"/>
      <path id="DejaVuSans-73" d="M 2834 3397 
L 2834 2853 
Q 2591 2978 2328 3040 
Q 2066 3103 1784 3103 
Q 1356 3103 1142 2972 
Q 928 2841 928 2578 
Q 928 2378 1081 2264 
Q 1234 2150 1697 2047 
L 1894 2003 
Q 2506 1872 2764 1633 
Q 3022 1394 3022 966 
Q 3022 478 2636 193 
Q 2250 -91 1575 -91 
Q 1294 -91 989 -36 
Q 684 19 347 128 
L 347 722 
Q 666 556 975 473 
Q 1284 391 1588 391 
Q 1994 391 2212 530 
Q 2431 669 2431 922 
Q 2431 1156 2273 1281 
Q 2116 1406 1581 1522 
L 1381 1569 
Q 847 1681 609 1914 
Q 372 2147 372 2553 
Q 372 3047 722 3315 
Q 1072 3584 1716 3584 
Q 2034 3584 2315 3537 
Q 2597 3491 2834 3397 
z
" transform="scale(0.015625)"/>
     </defs>
     <use xlink:href="#DejaVuSans-62"/>
     <use xlink:href="#DejaVuSans-69" transform="translate(63.476562 0)"/>
     <use xlink:href="#DejaVuSans-74" transform="translate(91.259766 0)"/>
     <use xlink:href="#DejaVuSans-73" transform="translate(130.46875 0)"/>
    </g>
   </g>
   <g id="text_7">
    <!-- TX signal -->
    <g style="fill: #555555" transform="translate(273.409994 199.741812) scale(0.09 -0.09)">
     <defs>
      <path id="DejaVuSans-54" d="M -19 4666 
L 3928 4666 
L 3928 4134 
L 2272 4134 
L 2272 0 
L 1638 0 
L 1638 4134 
L -19 4134 
L -19 4666 
z
" transform="scale(0.015625)"/>
      <path id="DejaVuSans-58" d="M 403 4666 
L 1081 4666 
L 2241 2931 
L 3406 4666 
L 4084 4666 
L 2584 2425 
L 4184 0 
L 3506 0 
L 2194 1984 
L 872 0 
L 191 0 
L 1856 2491 
L 403 4666 
z
" transform="scale(0.015625)"/>
      <path id="DejaVuSans-20" transform="scale(0.015625)"/>
      <path id="DejaVuSans-67" d="M 2906 1791 
Q 2906 2416 2648 2759 
Q 2391 3103 1925 3103 
Q 1463 3103 1205 2759 
Q 947 2416 947 1791 
Q 947 1169 1205 825 
Q 1463 481 1925 481 
Q 2391 481 2648 825 
Q 2906 1169 2906 1791 
z
M 3481 434 
Q 3481 -459 3084 -895 
Q 2688 -1331 1869 -1331 
Q 1566 -1331 1297 -1286 
Q 1028 -1241 775 -1147 
L 775 -588 
Q 1028 -725 1275 -790 
Q 1522 -856 1778 -856 
Q 2344 -856 2625 -561 
Q 2906 -266 2906 331 
L 2906 616 
Q 2728 306 2450 153 
Q 2172 0 1784 0 
Q 1141 0 747 490 
Q 353 981 353 1791 
Q 353 2603 747 3093 
Q 1141 3584 1784 3584 
Q 2172 3584 2450 3431 
Q 2728 3278 2906 2969 
L 2906 3500 
L 3481 3500 
L 3481 434 
z
" transform="scale(0.015625)"/>
      <path id="DejaVuSans-6e" d="M 3513 2113 
L 3513 0 
L 2938 0 
L 2938 2094 
Q 2938 2591 2744 2837 
Q 2550 3084 2163 3084 
Q 1697 3084 1428 2787 
Q 1159 2491 1159 1978 
L 1159 0 
L 581 0 
L 581 3500 
L 1159 3500 
L 1159 2956 
Q 1366 3272 1645 3428 
Q 1925 3584 2291 3584 
Q 2894 3584 3203 3211 
Q 3513 2838 3513 2113 
z
" transform="scale(0.015625)"/>
      <path id="DejaVuSans-61" d="M 2194 1759 
Q 1497 1759 1228 1600 
Q 959 1441 959 1056 
Q 959 750 1161 570 
Q 1363 391 1709 391 
Q 2188 391 2477 730 
Q 2766 1069 2766 1631 
L 2766 1759 
L 2194 1759 
z
M 3341 1997 
L 3341 0 
L 2766 0 
L 2766 531 
Q 2569 213 2275 61 
Q 1981 -91 1556 -91 
Q 1019 -91 701 211 
Q 384 513 384 1019 
Q 384 1609 779 1909 
Q 1175 2209 1959 2209 
L 2766 2209 
L 2766 2266 
Q 2766 2663 2505 2880 
Q 2244 3097 1772 3097 
Q 1472 3097 1187 3025 
Q 903 2953 641 2809 
L 641 3341 
Q 956 3463 1253 3523 
Q 1550 3584 1831 3584 
Q 2591 3584 2966 3190 
Q 3341 2797 3341 1997 
z
" transform="scale(0.015625)"/>
      <path id="DejaVuSans-6c" d="M 603 4863 
L 1178 4863 
L 1178 0 
L 603 0 
L 603 4863 
z
" transform="scale(0.015625)"/>
     </defs>
     <use xlink:href="#DejaVuSans-54"/>
     <use xlink:href="#DejaVuSans-58" transform="translate(61.083984 0)"/>
     <use xlink:href="#DejaVuSans-20" transform="translate(129.589844 0)"/>
     <use xlink:href="#DejaVuSans-73" transform="translate(161.376953 0)"/>
     <use xlink:href="#DejaVuSans-69" transform="translate(213.476562 0)"/>
     <use xlink:href="#DejaVuSans-67" transform="translate(241.259766 0)"/>
     <use xlink:href="#DejaVuSans-6e" transform="translate(304.736328 0)"/>
     <use xlink:href="#DejaVuSans-61" transform="translate(368.115234 0)"/>
     <use xlink:href="#DejaVuSans-6c" transform="translate(429.394531 0)"/>
    </g>
   </g>
   <g id="text_8">
    <!-- RX signal -->
    <g style="fill: #555555" transform="translate(408.496588 199.741812) scale(0.09 -0.09)">
     <defs>
      <path id="DejaVuSans-52" d="M 2841 2188 
Q 3044 2119 3236 1894 
Q 3428 1669 3622 1275 
L 4263 0 
L 3584 0 
L 2988 1197 
Q 2756 1666 2539 1819 
Q 2322 1972 1947 1972 
L 1259 1972 
L 1259 0 
L 628 0 
L 628 4666 
L 2053 4666 
Q 2853 4666 3247 4331 
Q 3641 3997 3641 3322 
Q 3641 2881 3436 2590 
Q 3231 2300 2841 2188 
z
M 1259 4147 
L 1259 2491 
L 2053 2491 
Q 2509 2491 2742 2702 
Q 2975 2913 2975 3322 
Q 2975 3731 2742 3939 
Q 2509 4147 2053 4147 
L 1259 4147 
z
" transform="scale(0.015625)"/>
     </defs>
     <use xlink:href="#DejaVuSans-52"/>
     <use xlink:href="#DejaVuSans-58" transform="translate(69.482422 0)"/>
     <use xlink:href="#DejaVuSans-20" transform="translate(137.988281 0)"/>
     <use xlink:href="#DejaVuSans-73" transform="translate(169.775391 0)"/>
     <use xlink:href="#DejaVuSans-69" transform="translate(221.875 0)"/>
     <use xlink:href="#DejaVuSans-67" transform="translate(249.658203 0)"/>
     <use xlink:href="#DejaVuSans-6e" transform="translate(313.134766 0)"/>
     <use xlink:href="#DejaVuSans-61" transform="translate(376.513672 0)"/>
     <use xlink:href="#DejaVuSans-6c" transform="translate(437.792969 0)"/>
    </g>
   </g>
   <g id="text_9">
    <!-- baseband -->
    <g style="fill: #555555" transform="translate(542.861074 199.741812) scale(0.09 -0.09)">
     <defs>
      <path id="DejaVuSans-65" d="M 3597 1894 
L 3597 1613 
L 953 1613 
Q 991 1019 1311 708 
Q 1631 397 2203 397 
Q 2534 397 2845 478 
Q 3156 559 3463 722 
L 3463 178 
Q 3153 47 2828 -22 
Q 2503 -91 2169 -91 
Q 1331 -91 842 396 
Q 353 884 353 1716 
Q 353 2575 817 3079 
Q 1281 3584 2069 3584 
Q 2775 3584 3186 3129 
Q 3597 2675 3597 1894 
z
M 3022 2063 
Q 3016 2534 2758 2815 
Q 2500 3097 2075 3097 
Q 1594 3097 1305 2825 
Q 1016 2553 972 2059 
L 3022 2063 
z
" transform="scale(0.015625)"/>
      <path id="DejaVuSans-64" d="M 2906 2969 
L 2906 4863 
L 3481 4863 
L 3481 0 
L 2906 0 
L 2906 525 
Q 2725 213 2448 61 
Q 2172 -91 1784 -91 
Q 1150 -91 751 415 
Q 353 922 353 1747 
Q 353 2572 751 3078 
Q 1150 3584 1784 3584 
Q 2172 3584 2448 3432 
Q 2725 3281 2906 2969 
z
M 947 1747 
Q 947 1113 1208 752 
Q 1469 391 1925 391 
Q 2381 391 2643 752 
Q 2906 1113 2906 1747 
Q 2906 2381 2643 2742 
Q 2381 3103 1925 3103 
Q 1469 3103 1208 2742 
Q 947 2381 947 1747 
z
" transform="scale(0.015625)"/>
     </defs>
     <use xlink:href="#DejaVuSans-62"/>
     <use xlink:href="#DejaVuSans-61" transform="translate(63.476562 0)"/>
     <use xlink:href="#DejaVuSans-73" transform="translate(124.755859 0)"/>
     <use xlink:href="#DejaVuSans-65" transform="translate(176.855469 0)"/>
     <use xlink:href="#DejaVuSans-62" transform="translate(238.378906 0)"/>
     <use xlink:href="#DejaVuSans-61" transform="translate(301.855469 0)"/>
     <use xlink:href="#DejaVuSans-6e" transform="translate(363.134766 0)"/>
     <use xlink:href="#DejaVuSans-64" transform="translate(426.513672 0)"/>
    </g>
   </g>
   <g id="text_10">
    <g id="patch_12">
     <path d="M 322.255088 65.020875 
L 401.173838 65.020875 
Q 404.173838 65.020875 404.173838 62.020875 
L 404.173838 52.34275 
Q 404.173838 49.34275 401.173838 49.34275 
L 322.255088 49.34275 
Q 319.255088 49.34275 319.255088 52.34275 
L 319.255088 62.020875 
Q 319.255088 65.020875 322.255088 65.020875 
z
" style="fill: #ffebee; stroke-dasharray: 3.7,1.6; stroke-dashoffset: 0; stroke: #b71c1c; stroke-linejoin: miter"/>
    </g>
    <!-- Noise (AWGN) -->
    <g style="fill: #b71c1c" transform="translate(322.255088 59.941187) scale(0.1 -0.1)">
     <defs>
      <path id="DejaVuSans-Bold-4e" d="M 588 4666 
L 1931 4666 
L 3628 1466 
L 3628 4666 
L 4769 4666 
L 4769 0 
L 3425 0 
L 1728 3200 
L 1728 0 
L 588 0 
L 588 4666 
z
" transform="scale(0.015625)"/>
      <path id="DejaVuSans-Bold-20" transform="scale(0.015625)"/>
      <path id="DejaVuSans-Bold-41" d="M 3419 850 
L 1538 850 
L 1241 0 
L 31 0 
L 1759 4666 
L 3194 4666 
L 4922 0 
L 3713 0 
L 3419 850 
z
M 1838 1716 
L 3116 1716 
L 2478 3572 
L 1838 1716 
z
" transform="scale(0.015625)"/>
      <path id="DejaVuSans-Bold-57" d="M 191 4666 
L 1344 4666 
L 2150 1275 
L 2950 4666 
L 4109 4666 
L 4909 1275 
L 5716 4666 
L 6859 4666 
L 5759 0 
L 4372 0 
L 3525 3547 
L 2688 0 
L 1300 0 
L 191 4666 
z
" transform="scale(0.015625)"/>
      <path id="DejaVuSans-Bold-47" d="M 4781 347 
Q 4331 128 3847 18 
Q 3363 -91 2847 -91 
Q 1681 -91 1000 561 
Q 319 1213 319 2328 
Q 319 3456 1012 4103 
Q 1706 4750 2913 4750 
Q 3378 4750 3804 4662 
Q 4231 4575 4609 4403 
L 4609 3438 
Q 4219 3659 3833 3768 
Q 3447 3878 3059 3878 
Q 2341 3878 1952 3476 
Q 1563 3075 1563 2328 
Q 1563 1588 1938 1184 
Q 2313 781 3003 781 
Q 3191 781 3352 804 
Q 3513 828 3641 878 
L 3641 1784 
L 2906 1784 
L 2906 2591 
L 4781 2591 
L 4781 347 
z
" transform="scale(0.015625)"/>
     </defs>
     <use xlink:href="#DejaVuSans-Bold-4e"/>
     <use xlink:href="#DejaVuSans-Bold-6f" transform="translate(83.691406 0)"/>
     <use xlink:href="#DejaVuSans-Bold-69" transform="translate(152.392578 0)"/>
     <use xlink:href="#DejaVuSans-Bold-73" transform="translate(186.669922 0)"/>
     <use xlink:href="#DejaVuSans-Bold-65" transform="translate(246.191406 0)"/>
     <use xlink:href="#DejaVuSans-Bold-20" transform="translate(314.013672 0)"/>
     <use xlink:href="#DejaVuSans-Bold-28" transform="translate(348.828125 0)"/>
     <use xlink:href="#DejaVuSans-Bold-41" transform="translate(394.53125 0)"/>
     <use xlink:href="#DejaVuSans-Bold-57" transform="translate(467.423828 0)"/>
     <use xlink:href="#DejaVuSans-Bold-47" transform="translate(577.726562 0)"/>
     <use xlink:href="#DejaVuSans-Bold-4e" transform="translate(659.806641 0)"/>
     <use xlink:href="#DejaVuSans-Bold-29" transform="translate(743.498047 0)"/>
    </g>
   </g>
   <g id="text_11">
    <!-- TRANSMITTER -->
    <g style="fill: #455a64" transform="translate(118.565586 113.710125) scale(0.1 -0.1)">
     <defs>
      <path id="DejaVuSans-Bold-54" d="M 31 4666 
L 4331 4666 
L 4331 3756 
L 2784 3756 
L 2784 0 
L 1581 0 
L 1581 3756 
L 31 3756 
L 31 4666 
z
" transform="scale(0.015625)"/>
      <path id="DejaVuSans-Bold-49" d="M 588 4666 
L 1791 4666 
L 1791 0 
L 588 0 
L 588 4666 
z
" transform="scale(0.015625)"/>
      <path id="DejaVuSans-Bold-45" d="M 588 4666 
L 3834 4666 
L 3834 3756 
L 1791 3756 
L 1791 2888 
L 3713 2888 
L 3713 1978 
L 1791 1978 
L 1791 909 
L 3903 909 
L 3903 0 
L 588 0 
L 588 4666 
z
" transform="scale(0.015625)"/>
     </defs>
     <use xlink:href="#DejaVuSans-Bold-54"/>
     <use xlink:href="#DejaVuSans-Bold-52" transform="translate(68.212891 0)"/>
     <use xlink:href="#DejaVuSans-Bold-41" transform="translate(145.214844 0)"/>
     <use xlink:href="#DejaVuSans-Bold-4e" transform="translate(222.607422 0)"/>
     <use xlink:href="#DejaVuSans-Bold-53" transform="translate(306.298828 0)"/>
     <use xlink:href="#DejaVuSans-Bold-4d" transform="translate(378.320312 0)"/>
     <use xlink:href="#DejaVuSans-Bold-49" transform="translate(477.832031 0)"/>
     <use xlink:href="#DejaVuSans-Bold-54" transform="translate(515.039062 0)"/>
     <use xlink:href="#DejaVuSans-Bold-54" transform="translate(585.501953 0)"/>
     <use xlink:href="#DejaVuSans-Bold-45" transform="translate(653.714844 0)"/>
     <use xlink:href="#DejaVuSans-Bold-52" transform="translate(722.025391 0)"/>
    </g>
   </g>
   <g id="text_12">
    <!-- RECEIVER -->
    <g style="fill: #455a64" transform="translate(537.565683 113.710125) scale(0.1 -0.1)">
     <defs>
      <path id="DejaVuSans-Bold-56" d="M 31 4666 
L 1241 4666 
L 2478 1222 
L 3713 4666 
L 4922 4666 
L 3194 0 
L 1759 0 
L 31 4666 
z
" transform="scale(0.015625)"/>
     </defs>
     <use xlink:href="#DejaVuSans-Bold-52"/>
     <use xlink:href="#DejaVuSans-Bold-45" transform="translate(77.001953 0)"/>
     <use xlink:href="#DejaVuSans-Bold-43" transform="translate(145.3125 0)"/>
     <use xlink:href="#DejaVuSans-Bold-45" transform="translate(218.701172 0)"/>
     <use xlink:href="#DejaVuSans-Bold-49" transform="translate(287.011719 0)"/>
     <use xlink:href="#DejaVuSans-Bold-56" transform="translate(324.21875 0)"/>
     <use xlink:href="#DejaVuSans-Bold-45" transform="translate(401.611328 0)"/>
     <use xlink:href="#DejaVuSans-Bold-52" transform="translate(469.921875 0)"/>
    </g>
   </g>
   <g id="text_13">
    <!-- Digital Communication System — Conceptual Block Diagram -->
    <g transform="translate(118.713437 17.837812) scale(0.14 -0.14)">
     <defs>
      <path id="DejaVuSans-Bold-67" d="M 2919 594 
Q 2688 288 2409 144 
Q 2131 0 1766 0 
Q 1125 0 706 504 
Q 288 1009 288 1791 
Q 288 2575 706 3076 
Q 1125 3578 1766 3578 
Q 2131 3578 2409 3434 
Q 2688 3291 2919 2981 
L 2919 3500 
L 4044 3500 
L 4044 353 
Q 4044 -491 3511 -936 
Q 2978 -1381 1966 -1381 
Q 1638 -1381 1331 -1331 
Q 1025 -1281 716 -1178 
L 716 -306 
Q 1009 -475 1290 -558 
Q 1572 -641 1856 -641 
Q 2406 -641 2662 -400 
Q 2919 -159 2919 353 
L 2919 594 
z
M 2181 2772 
Q 1834 2772 1640 2515 
Q 1447 2259 1447 1791 
Q 1447 1309 1634 1061 
Q 1822 813 2181 813 
Q 2531 813 2725 1069 
Q 2919 1325 2919 1791 
Q 2919 2259 2725 2515 
Q 2531 2772 2181 2772 
z
" transform="scale(0.015625)"/>
      <path id="DejaVuSans-Bold-79" d="M 78 3500 
L 1197 3500 
L 2138 1125 
L 2938 3500 
L 4056 3500 
L 2584 -331 
Q 2363 -916 2067 -1148 
Q 1772 -1381 1288 -1381 
L 641 -1381 
L 641 -647 
L 991 -647 
Q 1275 -647 1404 -556 
Q 1534 -466 1606 -231 
L 1638 -134 
L 78 3500 
z
" transform="scale(0.015625)"/>
      <path id="DejaVuSans-Bold-2014" d="M 344 2156 
L 6056 2156 
L 6056 1350 
L 344 1350 
L 344 2156 
z
" transform="scale(0.015625)"/>
      <path id="DejaVuSans-Bold-70" d="M 1656 506 
L 1656 -1331 
L 538 -1331 
L 538 3500 
L 1656 3500 
L 1656 2988 
Q 1888 3294 2169 3439 
Q 2450 3584 2816 3584 
Q 3463 3584 3878 3070 
Q 4294 2556 4294 1747 
Q 4294 938 3878 423 
Q 3463 -91 2816 -91 
Q 2450 -91 2169 54 
Q 1888 200 1656 506 
z
M 2400 2772 
Q 2041 2772 1848 2508 
Q 1656 2244 1656 1747 
Q 1656 1250 1848 986 
Q 2041 722 2400 722 
Q 2759 722 2948 984 
Q 3138 1247 3138 1747 
Q 3138 2247 2948 2509 
Q 2759 2772 2400 2772 
z
" transform="scale(0.015625)"/>
      <path id="DejaVuSans-Bold-6b" d="M 538 4863 
L 1656 4863 
L 1656 2216 
L 2944 3500 
L 4244 3500 
L 2534 1894 
L 4378 0 
L 3022 0 
L 1656 1459 
L 1656 0 
L 538 0 
L 538 4863 
z
" transform="scale(0.015625)"/>
     </defs>
     <use xlink:href="#DejaVuSans-Bold-44"/>
     <use xlink:href="#DejaVuSans-Bold-69" transform="translate(83.007812 0)"/>
     <use xlink:href="#DejaVuSans-Bold-67" transform="translate(117.285156 0)"/>
     <use xlink:href="#DejaVuSans-Bold-69" transform="translate(188.867188 0)"/>
     <use xlink:href="#DejaVuSans-Bold-74" transform="translate(223.144531 0)"/>
     <use xlink:href="#DejaVuSans-Bold-61" transform="translate(270.947266 0)"/>
     <use xlink:href="#DejaVuSans-Bold-6c" transform="translate(338.427734 0)"/>
     <use xlink:href="#DejaVuSans-Bold-20" transform="translate(372.705078 0)"/>
     <use xlink:href="#DejaVuSans-Bold-43" transform="translate(407.519531 0)"/>
     <use xlink:href="#DejaVuSans-Bold-6f" transform="translate(480.908203 0)"/>
     <use xlink:href="#DejaVuSans-Bold-6d" transform="translate(549.609375 0)"/>
     <use xlink:href="#DejaVuSans-Bold-6d" transform="translate(653.808594 0)"/>
     <use xlink:href="#DejaVuSans-Bold-75" transform="translate(758.007812 0)"/>
     <use xlink:href="#DejaVuSans-Bold-6e" transform="translate(829.199219 0)"/>
     <use xlink:href="#DejaVuSans-Bold-69" transform="translate(900.390625 0)"/>
     <use xlink:href="#DejaVuSans-Bold-63" transform="translate(934.667969 0)"/>
     <use xlink:href="#DejaVuSans-Bold-61" transform="translate(993.945312 0)"/>
     <use xlink:href="#DejaVuSans-Bold-74" transform="translate(1061.425781 0)"/>
     <use xlink:href="#DejaVuSans-Bold-69" transform="translate(1109.228516 0)"/>
     <use xlink:href="#DejaVuSans-Bold-6f" transform="translate(1143.505859 0)"/>
     <use xlink:href="#DejaVuSans-Bold-6e" transform="translate(1212.207031 0)"/>
     <use xlink:href="#DejaVuSans-Bold-20" transform="translate(1283.398438 0)"/>
     <use xlink:href="#DejaVuSans-Bold-53" transform="translate(1318.212891 0)"/>
     <use xlink:href="#DejaVuSans-Bold-79" transform="translate(1390.234375 0)"/>
     <use xlink:href="#DejaVuSans-Bold-73" transform="translate(1455.419922 0)"/>
     <use xlink:href="#DejaVuSans-Bold-74" transform="translate(1514.941406 0)"/>
     <use xlink:href="#DejaVuSans-Bold-65" transform="translate(1562.744141 0)"/>
     <use xlink:href="#DejaVuSans-Bold-6d" transform="translate(1630.566406 0)"/>
     <use xlink:href="#DejaVuSans-Bold-20" transform="translate(1734.765625 0)"/>
     <use xlink:href="#DejaVuSans-Bold-2014" transform="translate(1769.580078 0)"/>
     <use xlink:href="#DejaVuSans-Bold-20" transform="translate(1869.580078 0)"/>
     <use xlink:href="#DejaVuSans-Bold-43" transform="translate(1904.394531 0)"/>
     <use xlink:href="#DejaVuSans-Bold-6f" transform="translate(1977.783203 0)"/>
     <use xlink:href="#DejaVuSans-Bold-6e" transform="translate(2046.484375 0)"/>
     <use xlink:href="#DejaVuSans-Bold-63" transform="translate(2117.675781 0)"/>
     <use xlink:href="#DejaVuSans-Bold-65" transform="translate(2176.953125 0)"/>
     <use xlink:href="#DejaVuSans-Bold-70" transform="translate(2244.775391 0)"/>
     <use xlink:href="#DejaVuSans-Bold-74" transform="translate(2316.357422 0)"/>
     <use xlink:href="#DejaVuSans-Bold-75" transform="translate(2364.160156 0)"/>
     <use xlink:href="#DejaVuSans-Bold-61" transform="translate(2435.351562 0)"/>
     <use xlink:href="#DejaVuSans-Bold-6c" transform="translate(2502.832031 0)"/>
     <use xlink:href="#DejaVuSans-Bold-20" transform="translate(2537.109375 0)"/>
     <use xlink:href="#DejaVuSans-Bold-42" transform="translate(2571.923828 0)"/>
     <use xlink:href="#DejaVuSans-Bold-6c" transform="translate(2648.144531 0)"/>
     <use xlink:href="#DejaVuSans-Bold-6f" transform="translate(2682.421875 0)"/>
     <use xlink:href="#DejaVuSans-Bold-63" transform="translate(2751.123047 0)"/>
     <use xlink:href="#DejaVuSans-Bold-6b" transform="translate(2810.400391 0)"/>
     <use xlink:href="#DejaVuSans-Bold-20" transform="translate(2876.904297 0)"/>
     <use xlink:href="#DejaVuSans-Bold-44" transform="translate(2911.71875 0)"/>
     <use xlink:href="#DejaVuSans-Bold-69" transform="translate(2994.726562 0)"/>
     <use xlink:href="#DejaVuSans-Bold-61" transform="translate(3029.003906 0)"/>
     <use xlink:href="#DejaVuSans-Bold-67" transform="translate(3096.484375 0)"/>
     <use xlink:href="#DejaVuSans-Bold-72" transform="translate(3168.066406 0)"/>
     <use xlink:href="#DejaVuSans-Bold-61" transform="translate(3217.382812 0)"/>
     <use xlink:href="#DejaVuSans-Bold-6d" transform="translate(3284.863281 0)"/>
    </g>
   </g>
  </g>
 </g>
 <defs>
  <clipPath id="p44a644ae5e">
   <rect x="7.2" y="31.837812" width="697.5" height="221.76"/>
  </clipPath>
 </defs>
</svg>
